<?xml version="1.0" encoding="iso-8859-1"?>
<!-- Uploaded to: SVG Repo, www.svgrepo.com, Generator: SVG Repo Mixer Tools -->
<!DOCTYPE svg PUBLIC "-//W3C//DTD SVG 1.1//EN" "http://www.w3.org/Graphics/SVG/1.1/DTD/svg11.dtd">
<svg fill="#000000" version="1.1" id="Capa_1" xmlns="http://www.w3.org/2000/svg" xmlns:xlink="http://www.w3.org/1999/xlink" 
	 width="800px" height="800px" viewBox="0 0 523.646 523.646"
	 xml:space="preserve">
<g>
	<path d="M235.523,169.902H7.412c-4.09,0-7.412,3.321-7.412,7.421v67.418c0,4.093,3.322,7.415,7.412,7.415h228.111
		c4.1,0,7.421-3.322,7.421-7.415v-67.424C242.944,173.218,239.623,169.902,235.523,169.902z M121.475,228.593H24.107v-38.946h97.368
		V228.593z M235.523,269.351H7.412c-4.09,0-7.412,3.322-7.412,7.412v67.424c0,4.108,3.322,7.418,7.412,7.418h228.111
		c4.1,0,7.421-3.31,7.421-7.418v-67.424C242.944,272.673,239.623,269.351,235.523,269.351z M121.475,327.034H24.107v-38.946h97.368
		V327.034z M235.523,367.848H7.412c-4.09,0-7.412,3.322-7.412,7.424v67.406c0,4.103,3.322,7.418,7.412,7.418h228.111
		c4.1,0,7.421-3.315,7.421-7.418V375.26C242.944,371.163,239.623,367.848,235.523,367.848z M121.475,428.444H24.107v-38.951h97.368
		V428.444z M523.646,264.959c0,51.708-42.061,93.763-93.768,93.763H260.624c1.2-2.914,1.938-6.076,1.938-9.422v-10.367h167.316
		c40.79,0,73.979-33.184,73.979-73.979s-33.183-73.97-73.979-73.97c-3.837,0-7.886,0.37-12.378,1.126l-6.324,1.067l-3.559-5.346
		c-13.771-20.694-36.812-33.053-61.602-33.053c-2.482,0-5.013,0.127-7.495,0.381l-8.346,0.848l-2.199-8.098
		c-8.724-32.122-38.041-54.565-71.304-54.565c-37.223,0-68.024,27.671-73.14,63.511h-20.005
		c5.225-46.79,44.984-83.303,93.145-83.303c39.458,0,74.526,24.881,87.95,61.439c29.908-0.375,57.795,13.249,75.799,36.727
		c3.264-0.354,6.396-0.532,9.458-0.532C481.585,171.19,523.646,213.258,523.646,264.959z"/>
</g>
</svg>