<svg id="Layer_1" data-name="Layer 1" xmlns="http://www.w3.org/2000/svg" viewBox="0 0 103.56 122.88"><title>data-lake</title><path d="M21.24,25.73C29.06,28.34,39.94,30,52,30s23-1.61,30.78-4.22c6.86-2.29,11.1-5.06,11.1-7.78s-4.24-5.48-11.1-7.77C75,7.57,64.11,6,52,6s-23,1.61-30.79,4.22C6.69,15,6.29,20.74,21.24,25.73ZM2,108.08c2.4.52,4.88,1.27,7.62,2.09,2.27.68,4.72,1.42,7,2s5.56-.58,8.92-1.81c3.9-1.44,8-2.93,12.7-2.81,3.49.09,6.52,1.74,9.6,3.42,2.13,1.16,4.29,2.34,5.68,2.39,1.64.06,3.71-1.16,5.77-2.38,3-1.77,6-3.55,10.08-3.69,4.42-.15,7.91,1.41,11.38,3a20.27,20.27,0,0,0,6.18,2c2,.16,4.3-1.33,6.55-2.76,2.79-1.79,5.52-3.53,9-3.92l1,9.46c-1.34.15-3.13,1.29-5,2.46-3.58,2.29-7.27,4.65-12.36,4.26-3.5-.27-6.41-1.57-9.34-2.87-2.47-1.1-5-2.21-7.22-2.13-1.58,0-3.56,1.22-5.53,2.38-3.25,1.92-6.5,3.84-10.94,3.68-3.63-.13-6.78-1.85-9.89-3.54-2.07-1.13-4.1-2.24-5.28-2.27-2.9-.07-6.11,1.11-9.2,2.25-4.78,1.76-9.34,3.44-14.58,2.07-3-.77-5.24-1.45-7.35-2.09-2.54-.76-4.83-1.45-6.91-1.9l2-9.31Zm1.9-23c2.16.55,3.87,1.07,5.72,1.62,2.26.68,4.72,1.42,7,2s5.56-.57,8.92-1.81c3.9-1.44,8-2.93,12.7-2.81,3.49.09,6.52,1.74,9.6,3.42,2.13,1.16,4.29,2.34,5.68,2.39,1.64.06,3.71-1.16,5.77-2.38,3-1.77,6-3.55,10.08-3.69,4.42-.14,7.91,1.41,11.38,3a20.5,20.5,0,0,0,6.18,2c2,.16,4.3-1.33,6.55-2.76,2.79-1.79,5.52-3.53,9-3.92l1,9.46c-1.34.15-3.13,1.29-5,2.46C95,96.4,91.33,98.76,86.24,98.37c-3.5-.27-6.41-1.57-9.34-2.87-2.47-1.1-5-2.21-7.22-2.13-1.58,0-3.56,1.22-5.53,2.38-3.25,1.92-6.5,3.84-10.94,3.68-3.63-.13-6.78-1.85-9.89-3.54-2.07-1.12-4.1-2.24-5.28-2.27-2.9-.07-6.11,1.11-9.2,2.25-4.78,1.76-9.34,3.44-14.58,2.07-3-.76-5.24-1.45-7.35-2.09s-4-1.21-5.34-1.54l2.34-9.2ZM4.18,18c0-5.55,5.8-10.27,15.18-13.4C27.78,1.74,39.33,0,52,0S76.27,1.74,84.69,4.55s14.11,7,15,11.93a3,3,0,0,1,.17,1V74.21a23.54,23.54,0,0,0-5.76,2l-.19.1V59.62A37.51,37.51,0,0,1,84.69,64c-8.42,2.81-20,4.55-32.66,4.55S27.78,66.81,19.36,64a38.34,38.34,0,0,1-9.16-4.31V77.52a3.75,3.75,0,0,0,.29.81c-1-.3-2.18-.63-3.81-1-.23-.08-.47-.16-.72-.22a8,8,0,0,0-1.73-.25c0-20.56-.05-42.41-.05-58.86Zm6,33.21c.54,2.53,4.66,5.08,11,7.21C29.06,61,39.94,62.59,52,62.59S75,61,82.81,58.37c6.86-2.29,11.1-5.07,11.1-7.78h0V27a37.51,37.51,0,0,1-9.26,4.38c-8.42,2.81-20,4.55-32.66,4.55s-24.25-1.74-32.67-4.55a37.58,37.58,0,0,1-9.16-4.31V51.16Z"/></svg>