<svg class="svg-icon" style="width: 1em;height: 1em;vertical-align: middle;fill: currentColor;overflow: hidden;" viewBox="0 0 1024 1024" version="1.1" xmlns="http://www.w3.org/2000/svg"><path d="M928 531.3h-0.84c-11.25-68.16-143.22-80.8-203.34-83.02 0.09-1.3 0.52-2.44 0.52-3.78 0-1.42-0.17-2.76-0.28-4.13h0.28V173.15h-0.76c-11.74-71.16-170.38-74.92-203.16-74.92-34.05 0-203.92 4.02-203.92 83.43v266.22c-52.09 0.82-218.44 9.95-218.44 92.91V838.6h0.33c6.91 83.73 189.71 88.1 226.94 88.1 26.98 0 130.45-2.3 188.02-35.42 57.59 32.97 160.47 35.42 187.4 35.42 37.95 0 227.26-4.48 227.26-92.98 0-1.58-0.19-3.08-0.31-4.61h0.3V531.3z m-227.27-4.98c55.01 0 97.05 6.92 123.31 14.46-26.26 7.53-68.3 14.45-123.31 14.45-55.01 0-97.05-6.92-123.31-14.45 26.26-7.54 68.3-14.46 123.31-14.46zM520.41 168.68c49.36 0 87.08 6.21 110.64 12.97-23.56 6.76-61.29 12.97-110.64 12.97-49.36 0-87.08-6.21-110.64-12.97 23.56-6.76 61.28-12.97 110.64-12.97zM386.94 378.07V248.09c50.96 15.68 114.12 17 133.47 17 19.34 0 82.5-1.32 133.47-17V373s3.89 51.74-18.94 69.35c-1.9 0.62-3.81 1.09-5.71 1.67 0.58 0.16 1.26 0.32 1.82 0.48-7.92 2.27-17.58 4.46-28.6 6.4-51.99 10.8-102.83 8.13-138.72 3.56-17.78-1.96-33-4.66-45.23-7.66-0.08-0.02-0.2-0.04-0.28-0.06-0.21-0.04-0.4-0.13-0.61-0.18-2.73-0.68-5.41-1.37-7.85-2.07 0.37-0.11 0.81-0.21 1.19-0.31-23.63-8.81-24.01-41.46-24.01-41.46v-24.65z m-61.63 148.25c55.01 0 97.05 6.92 123.31 14.46-26.26 7.53-68.3 14.45-123.31 14.45s-97.05-6.92-123.31-14.45c26.27-7.54 68.31-14.46 123.31-14.46z m127.64 305c-2.11 0.69-4.24 1.21-6.36 1.86 0.65 0.18 1.4 0.35 2.03 0.53-8.83 2.53-19.59 4.97-31.88 7.13-57.94 12.04-114.6 9.07-154.61 3.97-19.81-2.18-36.77-5.2-50.41-8.53-0.09-0.02-0.22-0.05-0.31-0.06-0.24-0.05-0.44-0.14-0.68-0.2-3.05-0.76-6.03-1.52-8.75-2.3 0.41-0.12 0.91-0.23 1.33-0.35-26.33-9.81-26.77-46.21-26.77-46.21V614.82c56.8 17.47 127.19 18.94 148.75 18.94 21.48 0 91.46-1.47 148.15-18.77V781.3c-1.71 17.73-6.74 39.41-20.49 50.02z m375.42 0c-2.11 0.69-4.24 1.21-6.36 1.86 0.65 0.18 1.4 0.35 2.03 0.53-8.83 2.53-19.59 4.97-31.88 7.13-57.94 12.04-114.6 9.07-154.61 3.97-19.81-2.18-36.77-5.2-50.41-8.53-0.09-0.02-0.22-0.05-0.31-0.06-0.24-0.05-0.44-0.14-0.67-0.2-3.05-0.76-6.03-1.52-8.75-2.3 0.41-0.12 0.91-0.23 1.33-0.35-19.39-7.22-24.7-28.78-26.17-39.69v-178.7c56.7 17.3 126.67 18.77 148.15 18.77 21.56 0 91.95-1.47 148.75-18.94v139.22c0.01 0 4.34 57.66-21.1 77.29z" fill="#040000" /></svg>