<svg width="105" height="31" viewBox="0 0 105 31" fill="none" xmlns="http://www.w3.org/2000/svg">
<path d="M10.2266 30.9887C13.0006 31.0893 15.7063 30.1174 17.7795 28.2757C18.4519 27.6159 18.9833 26.827 19.3416 25.9565C19.6999 25.0861 19.8776 24.1523 19.8641 23.2114C19.8724 22.334 19.7058 21.4638 19.3738 20.6513C19.0419 19.8388 18.5513 19.1002 17.9306 18.4787C16.4615 17.0983 14.6076 16.1944 12.6134 15.8862L8.88222 15.1628C7.37163 14.8613 6.46529 14.0926 6.46529 13.0376C6.46529 11.6358 7.82481 10.6712 10 10.6712C11.2141 10.6242 12.3977 11.0575 13.2931 11.877C13.7958 12.4237 14.113 13.1146 14.1995 13.8515L19.5771 12.6457C19.4056 11.1169 18.6996 9.69735 17.5832 8.63645C15.532 6.74553 12.8218 5.72875 10.0303 5.80285C7.42874 5.72122 4.89075 6.61373 2.91542 8.30486C2.19513 8.96918 1.6216 9.77607 1.23145 10.674C0.841303 11.572 0.643118 12.5412 0.64955 13.5199C0.622674 14.3375 0.762825 15.1519 1.06147 15.9138C1.36012 16.6756 1.81102 17.3688 2.38672 17.9512C3.8027 19.26 5.55421 20.1521 7.44716 20.5285L11.1179 21.4027C12.9608 21.8248 13.7765 22.503 13.7765 23.7088C13.7765 25.216 12.4321 26.0751 10.2115 26.0751C9.5266 26.1084 8.84211 26.0012 8.20036 25.7601C7.55861 25.519 6.97323 25.1492 6.48039 24.6734C5.89154 24.0817 5.54656 23.291 5.51362 22.4578L0 23.6636C0.168737 25.2819 0.907416 26.788 2.0846 27.914C3.16878 28.9326 4.4465 29.7241 5.84232 30.2418C7.23814 30.7596 8.72378 30.993 10.2115 30.9284L10.2266 30.9887ZM50.9972 30.9284C52.5075 30.9703 54.0111 30.7135 55.4215 30.1728C56.8319 29.6322 58.1211 28.8184 59.2148 27.7783C60.6137 26.4514 61.6219 24.7678 62.1302 22.91L56.4655 21.0259C56.201 21.9865 55.6787 22.8568 54.9549 23.543C53.8905 24.5432 52.474 25.0847 51.0123 25.0502C50.2156 25.0588 49.4251 24.9101 48.6862 24.6126C47.9474 24.3151 47.2748 23.8748 46.7072 23.3169C45.5172 21.9564 44.8955 20.1924 44.97 18.3883C44.888 16.5613 45.5281 14.7753 46.7525 13.4144C47.8951 12.3153 49.4253 11.7089 51.0123 11.7263C51.7187 11.7042 52.4221 11.8265 53.0794 12.0857C53.7366 12.3449 54.3337 12.7355 54.8341 13.2335C55.5405 13.9511 56.0593 14.8311 56.3447 15.7958L62.1 13.8666C61.6187 12.0711 60.6883 10.4271 59.396 9.08862C58.2671 8.01904 56.9369 7.18329 55.4824 6.62967C54.0278 6.07604 52.4777 5.81551 50.9217 5.86314C49.3037 5.84397 47.698 6.1444 46.1969 6.74713C44.6958 7.34985 43.3291 8.24295 42.1754 9.37499C39.8773 11.8334 38.6069 15.0746 38.6238 18.4363C38.6406 21.7981 39.9435 25.0265 42.266 27.4618C44.6066 29.7342 47.7467 31.0004 51.0123 30.9887L50.9972 30.9284ZM31.4805 30.9887C33.2931 31.0623 35.0788 30.5321 36.5561 29.4815V24.3268C35.6056 24.9765 34.4754 25.3138 33.3234 25.2914C32.8892 25.3712 32.442 25.3438 32.0209 25.2115C31.5998 25.0791 31.2176 24.8459 30.9076 24.5322C30.5977 24.2184 30.3694 23.8338 30.2428 23.4117C30.1163 22.9897 30.0952 22.5432 30.1814 22.1111V0H23.8219V6.52632H36.5863V12.6909H23.8219V23.6485C23.7349 25.5812 24.4131 27.4706 25.7101 28.9088C26.4894 29.6235 27.4039 30.1757 28.4 30.5328C29.3961 30.89 30.4537 31.045 31.5107 30.9887" fill="#4F008C"/>
<path d="M68.3432 22.8807V6.53103H71.0947V7.82414C71.5308 7.29219 72.0837 6.86906 72.71 6.58796C73.3362 6.30686 74.0188 6.17544 74.7041 6.20403C77.8698 6.20403 80.1479 8.74567 80.1479 12.3872C80.1479 16.0287 77.9438 18.6447 74.7041 18.6447C74.0164 18.6697 73.3323 18.5337 72.7058 18.2474C72.0794 17.961 71.5278 17.5322 71.0947 16.9948V22.9402L68.3432 22.8807ZM71.0947 10.99V13.9627C71.3533 14.5851 71.7887 15.1172 72.3464 15.4926C72.9041 15.8679 73.5595 16.0699 74.2308 16.0733C76.0651 16.0733 77.2781 14.691 77.2781 12.4615C77.2781 10.232 76.0651 8.87944 74.2308 8.87944C73.5585 8.86966 72.8991 9.06465 72.3393 9.43874C71.7795 9.81283 71.3456 10.3485 71.0947 10.9752" fill="#03BB86"/>
<path d="M82.0154 14.3989C81.9729 13.5076 82.3098 12.6366 82.953 11.9752C83.5962 11.3138 84.4937 10.9154 85.4506 10.8665L90.3847 10.285V9.70355C90.407 9.5651 90.395 9.42374 90.3495 9.29031C90.3039 9.15688 90.2262 9.03494 90.1221 8.93387C90.0181 8.83279 89.8905 8.75527 89.7493 8.70726C89.608 8.65924 89.4568 8.64202 89.3073 8.65691H83.0616V6.2002H89.3073C91.8056 6.2002 93.1953 7.33406 93.1953 9.3692V17.6697H90.3847V16.216C89.9116 16.796 89.2922 17.2586 88.5814 17.5629C87.8706 17.8671 87.0903 18.0036 86.3094 17.9604C85.7671 18.0134 85.2188 17.9596 84.7003 17.8025C84.1818 17.6454 83.7045 17.3886 83.2996 17.0486C82.8946 16.7086 82.571 16.2931 82.3498 15.8291C82.1286 15.3651 82.0146 14.863 82.0154 14.3553V14.3989ZM87.0276 15.809C87.726 15.8229 88.4139 15.6494 89.0093 15.3092C89.6046 14.9689 90.0821 14.4763 90.3847 13.8901V12.4365L86.6216 12.9307C85.5755 13.0615 85.0602 13.5703 85.0602 14.3844C85.0602 15.1984 85.7941 15.838 87.0901 15.838" fill="#03BB86"/>
<path d="M95.5332 20.346H97.3751C97.6605 20.3779 97.9461 20.2871 98.1746 20.0918C98.4031 19.8966 98.5578 19.6113 98.6076 19.2931L98.9462 18.2402L95.0592 6.2002H97.6866L100.097 14.5778L102.413 6.2002H105L100.734 20.0256C100.152 21.933 99.3795 22.9402 97.5106 22.9402H95.5332V20.346Z" fill="#03BB86"/>
</svg>
