<?xml version="1.0" standalone="no"?>
<!DOCTYPE svg PUBLIC "-//W3C//DTD SVG 20010904//EN"
 "http://www.w3.org/TR/2001/REC-SVG-20010904/DTD/svg10.dtd">
<svg version="1.0" xmlns="http://www.w3.org/2000/svg"
 width="859.000000pt" height="274.000000pt" viewBox="0 0 859.000000 274.000000"
 preserveAspectRatio="xMidYMid meet">

<g transform="translate(0.000000,274.000000) scale(0.100000,-0.100000)"
fill="#000000" stroke="none">
<path d="M720 2543 c-43 -44 -50 -59 -95 -198 -26 -82 -71 -222 -100 -310
-211 -641 -253 -797 -281 -1023 -18 -142 -18 -143 3 -170 20 -26 25 -27 99
-25 276 5 699 206 925 440 81 84 185 205 237 275 66 91 76 121 74 232 0 89 -3
105 -31 161 -91 183 -209 280 -446 364 -200 72 -214 80 -194 112 15 24 10 93
-11 126 -10 18 -33 39 -49 48 -52 26 -79 20 -131 -32z m218 -394 c245 -80 352
-151 413 -274 58 -119 47 -186 -55 -329 -97 -136 -340 -344 -496 -425 -113
-59 -337 -130 -362 -115 -23 14 5 132 139 579 47 160 169 527 186 560 9 17 35
44 45 45 1 0 60 -19 130 -41z"/>
<path d="M6600 2554 c-247 -71 -426 -216 -621 -504 -116 -170 -211 -353 -245
-470 -28 -99 -25 -333 5 -412 43 -112 124 -211 218 -268 l57 -35 126 1 c129 1
176 11 291 63 110 49 298 237 359 356 44 87 73 228 74 360 1 108 0 112 -41
208 -54 129 -126 247 -186 305 -26 26 -46 54 -45 62 2 8 50 47 108 85 58 39
111 82 120 97 13 24 13 32 -5 84 -14 41 -28 62 -50 75 -39 24 -62 23 -165 -7z
m-169 -503 c36 -22 126 -133 163 -202 33 -62 55 -150 62 -256 13 -173 -28
-265 -165 -375 -47 -37 -117 -84 -157 -104 -68 -35 -75 -36 -155 -32 -102 4
-172 35 -204 89 -17 30 -20 51 -19 164 0 117 3 137 28 205 79 209 216 412 340
502 46 33 65 35 107 9z"/>
<path d="M2858 2098 c-22 -19 -35 -58 -63 -198 -32 -162 -49 -223 -80 -286
-25 -51 -26 -52 -96 -69 -81 -20 -139 -65 -139 -107 0 -41 22 -52 93 -45 92
10 94 6 53 -104 -18 -52 -43 -114 -54 -139 -38 -89 -83 -238 -80 -266 3 -27 7
-29 48 -32 82 -5 120 34 168 173 12 33 31 85 42 115 12 30 26 69 31 85 5 17
26 64 46 105 37 72 39 74 88 87 102 27 230 53 257 53 37 0 37 -20 -1 -113 -85
-207 -110 -323 -81 -378 46 -84 205 -48 361 83 65 55 164 154 193 194 10 13
14 14 23 2 9 -10 8 -30 -2 -78 -20 -91 -18 -126 7 -178 33 -65 77 -95 149
-100 51 -4 65 -1 99 22 46 30 47 31 66 11 8 -8 33 -19 56 -26 55 -14 79 4 132
101 66 118 234 280 292 280 50 0 55 -55 25 -260 -10 -69 -16 -132 -13 -140 10
-30 36 -50 65 -50 34 0 80 44 112 106 51 101 104 170 197 258 107 101 155 131
194 122 15 -4 51 -42 96 -103 178 -238 271 -284 420 -207 l53 28 -40 6 c-101
15 -192 102 -280 265 -21 39 -57 100 -81 137 -100 156 -211 140 -410 -59 -56
-57 -109 -103 -117 -103 -10 0 -17 16 -21 52 -15 109 -59 158 -145 158 -60 0
-115 -34 -189 -117 -33 -37 -63 -65 -66 -63 -2 3 12 40 33 81 68 135 75 175
46 271 -31 104 -83 118 -149 41 -76 -88 -173 -179 -240 -226 -72 -51 -90 -57
-82 -29 3 9 8 33 11 54 6 31 4 38 -18 53 -28 18 -69 12 -105 -16 -13 -10 -91
-83 -175 -163 -199 -190 -271 -244 -304 -232 -25 10 -11 78 37 191 63 146 80
196 80 232 0 47 -30 73 -84 73 -36 0 -50 -6 -89 -40 -38 -34 -52 -40 -90 -40
-24 0 -61 7 -80 15 -52 22 -70 17 -22 -6 22 -10 55 -19 73 -19 36 0 92 -25 92
-40 0 -15 -67 -12 -161 6 -107 20 -119 27 -119 67 0 40 42 212 71 292 12 33
24 81 26 106 4 41 1 50 -27 83 -27 31 -38 36 -74 36 -23 0 -49 -6 -58 -12z
m1299 -540 c-3 -7 -31 -92 -62 -188 -66 -204 -101 -304 -115 -331 -9 -15 -22
-19 -65 -19 -46 0 -56 4 -75 28 -21 25 -22 35 -16 119 3 50 13 121 22 158 l17
67 135 89 c128 84 170 105 159 77z"/>
<path d="M7139 1732 c-14 -9 -67 -44 -117 -76 -51 -33 -90 -61 -88 -63 2 -3
36 12 75 32 40 19 76 33 82 29 6 -3 7 -19 3 -37 -10 -50 -68 -220 -119 -352
-122 -318 -281 -740 -310 -825 -18 -52 -47 -131 -65 -174 -38 -95 -37 -147 5
-183 35 -31 48 -29 84 12 55 63 131 230 216 475 87 253 163 446 232 587 47 98
123 176 214 221 112 54 179 37 179 -46 0 -48 -35 -99 -112 -165 -68 -58 -120
-82 -149 -67 -18 10 -19 13 -4 38 9 15 55 56 102 92 47 35 80 66 74 68 -21 7
-139 -56 -185 -98 -77 -72 -125 -176 -98 -216 52 -78 271 -13 407 120 82 80
126 169 132 266 3 57 0 71 -24 114 -17 30 -42 56 -63 68 -68 36 -189 16 -317
-53 l-53 -29 0 24 c0 13 7 60 15 104 16 82 10 126 -18 144 -20 13 -71 7 -98
-10z"/>
<path d="M8165 1724 c-120 -43 -209 -114 -251 -201 -33 -68 -35 -129 -9 -282
33 -191 7 -284 -91 -331 -35 -17 -53 -21 -72 -14 -64 23 -52 66 50 185 55 64
58 70 23 42 -55 -43 -137 -130 -169 -178 -46 -71 -29 -131 48 -166 48 -22 91
-23 166 -5 99 24 155 67 201 156 30 58 32 172 5 279 -26 100 -18 201 20 271
32 60 83 107 122 115 53 12 91 35 107 65 15 29 15 34 0 56 -13 20 -23 24 -63
23 -26 0 -65 -7 -87 -15z"/>
<path d="M1925 1663 c-179 -91 -315 -211 -458 -402 -103 -138 -117 -197 -67
-279 26 -43 42 -48 104 -32 84 20 184 72 319 164 70 48 140 89 156 92 36 8 65
-22 97 -99 30 -70 74 -120 128 -146 87 -40 134 -25 226 76 33 36 60 70 60 74
0 5 -20 -7 -45 -26 -113 -86 -211 -44 -209 90 0 35 8 73 17 92 23 44 21 72 -7
113 -38 57 -66 67 -130 47 -86 -27 -242 -108 -349 -181 -128 -86 -142 -88 -83
-7 43 58 167 178 226 218 61 41 145 83 167 83 10 0 32 -9 48 -20 56 -37 125
-19 125 34 0 37 -43 109 -79 133 -26 18 -48 23 -95 23 -52 -1 -74 -7 -151 -47z"/>
</g>
</svg>
