<?xml version="1.0" encoding="UTF-8"?>
<svg id="Layer_1" data-name="Layer 1" xmlns="http://www.w3.org/2000/svg" viewBox="0 0 1200.17 208.87">
  <defs>
    <style>
      .cls-1 {
        fill: #fff;
      }

      .cls-2 {
        fill: #f39200;
      }
    </style>
  </defs>
  <g id="Calque_1" data-name="Calque 1">
    <g>
      <path class="cls-1" d="m302.27,66.84c9.77,0,17.9,1.11,24.42,3.33,6.51,2.22,11.73,5.4,15.65,9.54,3.92,4.15,6.69,9.18,8.32,15.09,1.63,5.92,2.44,12.51,2.44,19.76v68.81c-4.74,1.04-11.32,2.26-19.76,3.66-8.44,1.4-18.65,2.11-30.63,2.11-7.55,0-14.39-.67-20.53-2-6.14-1.33-11.43-3.51-15.87-6.55-4.44-3.03-7.85-6.99-10.21-11.88-2.37-4.88-3.55-10.88-3.55-17.98s1.37-12.58,4.11-17.31c2.74-4.73,6.4-8.51,10.99-11.32,4.58-2.81,9.84-4.85,15.76-6.1,5.92-1.26,12.06-1.89,18.42-1.89,4.29,0,8.1.19,11.43.55,3.33.37,6.03.85,8.1,1.44v-3.11c0-5.62-1.7-10.13-5.11-13.54-3.41-3.4-9.32-5.11-17.76-5.11-5.63,0-11.18.41-16.65,1.22-5.48.81-10.21,1.96-14.21,3.44l-4.22-26.64c1.92-.59,4.33-1.22,7.21-1.89s6.03-1.26,9.43-1.78,6.99-.96,10.77-1.33c3.77-.37,7.58-.56,11.43-.56l.02.04Zm2.66,96.78c3.25,0,6.36-.07,9.32-.22,2.96-.15,5.33-.37,7.1-.67v-25.08c-1.33-.29-3.33-.59-5.99-.89-2.66-.29-5.11-.44-7.33-.44-3.11,0-6.03.19-8.77.55-2.74.37-5.14,1.08-7.21,2.11-2.07,1.04-3.7,2.44-4.88,4.22-1.19,1.78-1.78,4-1.78,6.66,0,5.18,1.74,8.77,5.22,10.77s8.25,3,14.32,3h0Z"/>
      <path class="cls-1" d="m381.96,40.87l33.08-5.33v34.41h39.73v27.53h-39.73v41.07c0,6.96,1.22,12.51,3.66,16.65s7.36,6.22,14.76,6.22c3.55,0,7.21-.33,10.99-1,3.77-.67,7.21-1.59,10.32-2.77l4.66,25.75c-4,1.63-8.44,3.04-13.32,4.22-4.88,1.18-10.88,1.78-17.98,1.78-9.03,0-16.5-1.22-22.42-3.66s-10.65-5.84-14.21-10.21c-3.55-4.36-6.03-9.66-7.44-15.87-1.41-6.21-2.11-13.1-2.11-20.64V40.87h.01Z"/>
      <path class="cls-1" d="m581.3,182.72c-5.63,1.63-12.88,3.15-21.75,4.55-8.88,1.41-18.2,2.11-27.97,2.11s-18.17-1.33-24.75-4c-6.59-2.66-11.8-6.4-15.65-11.21-3.85-4.81-6.59-10.54-8.21-17.2-1.63-6.66-2.44-13.99-2.44-21.98v-65.04h33.08v61.04c0,10.66,1.4,18.35,4.22,23.09,2.81,4.74,8.06,7.1,15.76,7.1,2.37,0,4.88-.11,7.55-.33,2.66-.22,5.03-.48,7.1-.78v-90.12h33.08v112.77h-.02Z"/>
      <path class="cls-1" d="m676.53,124.78c0-10.66-1.37-18.2-4.11-22.64s-7.44-6.66-14.1-6.66c-2.07,0-4.22.11-6.44.33s-4.37.48-6.44.78v90.12h-33.08v-112.77c2.81-.74,6.1-1.52,9.88-2.33,3.77-.81,7.77-1.55,11.99-2.22s8.55-1.18,12.99-1.55,8.8-.55,13.1-.55c8.44,0,15.28,1.08,20.53,3.22,5.25,2.15,9.58,4.7,12.99,7.66,4.73-3.4,10.17-6.07,16.32-7.99,6.14-1.92,11.8-2.89,16.98-2.89,9.32,0,16.98,1.3,22.98,3.88,5.99,2.59,10.77,6.25,14.32,10.99s5.99,10.36,7.33,16.87c1.33,6.51,2,13.76,2,21.75v65.93h-33.08v-61.93c0-10.66-1.37-18.2-4.11-22.64-2.74-4.44-7.44-6.66-14.1-6.66-1.78,0-4.26.44-7.44,1.33s-5.81,2-7.88,3.33c1.03,3.41,1.7,6.99,2,10.77.29,3.77.44,7.81.44,12.1v63.71h-33.08v-61.93h.01Z"/>
    </g>
    <g>
      <path class="cls-1" d="m1091.61,109.42c0,9.03-1.11,17.24-3.33,24.64-2.22,7.4-5.48,13.76-9.77,19.09s-9.62,9.47-15.98,12.43c-6.36,2.96-13.69,4.44-21.98,4.44-4.59,0-8.88-.44-12.88-1.33s-7.85-2.14-11.54-3.77v43.95h-33.08V55.03c2.96-.89,6.36-1.74,10.21-2.55,3.85-.81,7.88-1.52,12.1-2.11s8.51-1.07,12.88-1.44c4.36-.37,8.55-.55,12.54-.55,9.62,0,18.2,1.44,25.75,4.33s13.91,6.96,19.09,12.21c5.18,5.25,9.14,11.65,11.88,19.2,2.74,7.55,4.11,15.98,4.11,25.31h0Zm-33.74.89c0-10.21-2.3-18.39-6.88-24.53-4.59-6.14-11.4-9.21-20.42-9.21-2.96,0-5.7.11-8.21.33-2.52.22-4.59.48-6.21.78v59.71c2.07,1.33,4.77,2.44,8.1,3.33s6.69,1.33,10.1,1.33c15.68,0,23.53-10.58,23.53-31.74h0Z"/>
      <path class="cls-1" d="m1150.66,144.05c6.07,0,10.36-.59,12.88-1.78,2.51-1.18,3.77-3.47,3.77-6.88,0-2.66-1.63-5-4.88-6.99-3.26-2-8.21-4.25-14.87-6.77-5.18-1.92-9.88-3.92-14.1-5.99s-7.81-4.55-10.77-7.44-5.25-6.33-6.88-10.32c-1.63-4-2.44-8.8-2.44-14.43,0-10.95,4.07-19.61,12.21-25.97s19.31-9.55,33.52-9.55c7.1,0,13.91.63,20.42,1.89s11.69,2.63,15.54,4.11l-5.77,25.75c-3.85-1.33-8.03-2.51-12.54-3.55-4.52-1.03-9.58-1.55-15.21-1.55-10.36,0-15.54,2.89-15.54,8.66,0,1.33.22,2.52.67,3.55.44,1.04,1.33,2.04,2.66,3,1.33.96,3.14,2,5.44,3.12,2.29,1.12,5.22,2.35,8.77,3.69,7.25,2.69,13.24,5.34,17.98,7.95,4.73,2.61,8.47,5.43,11.21,8.46s4.66,6.39,5.77,10.08,1.67,7.97,1.67,12.84c0,11.52-4.33,20.23-12.99,26.14-8.66,5.9-20.91,8.86-36.74,8.86-10.36,0-18.98-.89-25.86-2.66-6.88-1.78-11.65-3.25-14.32-4.44l5.55-26.86c5.62,2.22,11.39,3.96,17.31,5.22s11.76,1.89,17.54,1.89v-.03Z"/>
    </g>
    <path class="cls-2" d="m974.39,97.28c0,15.75-2.35,29.59-7.03,41.54-4.69,11.94-11.1,21.94-19.24,29.99s-17.83,14.11-29.06,18.18c-11.24,4.07-23.31,6.1-36.23,6.1s-24.42-2.04-35.56-6.1c-11.15-4.07-20.88-10.13-29.19-18.18-8.32-8.05-14.86-18.05-19.64-29.99s-7.17-25.79-7.17-41.54,2.48-29.59,7.43-41.54c4.95-11.94,11.63-21.98,20.04-30.12,8.4-8.14,18.13-14.24,29.19-18.31,11.06-4.07,22.69-6.1,34.9-6.1s24.42,2.04,35.56,6.1c11.15,4.07,20.88,10.18,29.19,18.31,8.31,8.14,14.86,18.18,19.64,30.12s7.17,25.79,7.17,41.54h0Zm-140.4,0c0,9.02,1.1,17.16,3.32,24.42,2.21,7.26,5.4,13.49,9.55,18.71,4.16,5.22,9.24,9.25,15.26,12.08,6.01,2.83,12.91,4.25,20.7,4.25s14.46-1.41,20.57-4.25c6.1-2.83,11.23-6.85,15.39-12.08,4.15-5.22,7.34-11.45,9.55-18.71,2.21-7.25,3.32-15.39,3.32-24.42s-1.11-17.21-3.32-24.55-5.4-13.62-9.55-18.84c-4.16-5.22-9.29-9.24-15.39-12.08-6.1-2.83-12.96-4.25-20.57-4.25s-14.69,1.46-20.7,4.38c-6.02,2.92-11.11,6.99-15.26,12.21-4.16,5.22-7.34,11.5-9.55,18.84-2.21,7.34-3.32,15.44-3.32,24.28h0Z"/>
    <path class="cls-2" d="m250.45,97.28c0,15.92-2.48,29.82-7.43,41.67-4.96,11.86-11.99,21.68-21.1,29.46-9.12,7.79-20.22,13.63-33.31,17.52-13.1,3.89-27.78,5.84-44.06,5.84-7.43,0-16.1-.31-26.01-.93s-19.64-1.9-29.19-3.85V7.84c9.55-1.77,19.51-2.96,29.86-3.58s19.24-.93,26.67-.93c15.75,0,30.03,1.77,42.86,5.31s23.84,9.11,33.04,16.72,16.28,17.34,21.23,29.19c4.95,11.86,7.43,26.1,7.43,42.73h.01Zm-119.7,58.39c1.94.18,4.2.31,6.77.4,2.56.09,5.62.13,9.16.13,20.7,0,36.05-5.22,46.05-15.66,9.99-10.44,15-24.86,15-43.26s-4.78-33.88-14.33-43.79-24.68-14.86-45.38-14.86c-2.83,0-5.75.05-8.76.13-3.01.09-5.84.31-8.49.66v116.24h-.02Z"/>
  </g>
  <g id="Layer_2" data-name="Layer 2">
    <g>
      <g>
        <rect class="cls-2" x="65.3" y="7.85" width="30.38" height="30.38"/>
        <rect class="cls-2" x="44.12" y="7.85" width="17.04" height="17.04"/>
        <rect class="cls-2" x="25.76" y="10.89" width="10.97" height="10.97"/>
        <rect class="cls-2" x="34.92" y="29.99" width="5.79" height="6.29"/>
        <rect class="cls-2" x="47.28" y="31.1" width="10.71" height="10.71"/>
        <rect class="cls-2" x="55.8" y="46.25" width="15.59" height="15.59"/>
        <rect class="cls-2" x="43.11" y="70.2" width="32.91" height="32.91"/>
        <rect class="cls-2" x="24.6" y="44.29" width="19.51" height="19.51"/>
        <rect class="cls-2" x="28.51" y="71.75" width="9.18" height="9.18"/>
        <rect class="cls-2" x="4.19" y="44.29" width="9.18" height="9.18"/>
        <rect class="cls-2" y="28.95" width="8.37" height="8.37"/>
        <rect class="cls-2" x="14.89" y="25.7" width="14.88" height="14.88"/>
        <rect class="cls-2" x="6.68" y="17.41" width="5.48" height="5.48"/>
        <rect class="cls-2" x="36.73" width="5.31" height="5.31"/>
        <rect class="cls-2" x="78.26" y="45.57" width="17.42" height="16.94"/>
      </g>
      <g>
        <rect class="cls-2" x="67.61" y="162.31" width="24.4" height="24.4"/>
        <rect class="cls-2" x="24.41" y="86.04" width="13.68" height="13.68"/>
        <rect class="cls-2" x="32.33" y="113.83" width="8.81" height="8.81"/>
        <rect class="cls-2" x="43.21" y="163.88" width="4.65" height="5.05"/>
        <rect class="cls-2" x="53.14" y="159.43" width="8.6" height="8.6"/>
        <rect class="cls-2" x="59.98" y="143.35" width="12.52" height="12.52"/>
        <rect class="cls-2" x="79.82" y="124.23" width="29.52" height="29.52"/>
        <rect class="cls-2" x="84.25" y="78.97" width="27.83" height="27.83"/>
        <rect class="cls-2" x="49.79" y="110.21" width="26.43" height="26.43"/>
        <rect class="cls-2" x="4.33" y="65.8" width="15.67" height="15.67"/>
        <rect class="cls-2" x="39.08" y="130.2" width="7.37" height="7.37"/>
        <rect class="cls-2" x="9.89" y="88.63" width="7.37" height="7.37"/>
        <rect class="cls-2" x="11.89" y="113.19" width="4.4" height="4.4"/>
      </g>
    </g>
  </g>
</svg>